<svg id="visual" viewBox="0 0 1400 600" width="1400" height="600" xmlns="http://www.w3.org/2000/svg" xmlns:xlink="http://www.w3.org/1999/xlink" version="1.1"><rect x="0" y="0" width="1400" height="600" fill="#f6f6f6"></rect><g fill="#fbc5ff"><circle r="17" cx="622" cy="269"></circle><circle r="2" cx="777" cy="425"></circle><circle r="9" cx="935" cy="82"></circle><circle r="14" cx="317" cy="426"></circle><circle r="3" cx="719" cy="185"></circle><circle r="7" cx="1181" cy="410"></circle><circle r="8" cx="525" cy="427"></circle><circle r="5" cx="965" cy="356"></circle><circle r="11" cx="873" cy="158"></circle><circle r="7" cx="930" cy="380"></circle><circle r="15" cx="211" cy="197"></circle><circle r="7" cx="340" cy="242"></circle><circle r="5" cx="909" cy="451"></circle><circle r="10" cx="387" cy="448"></circle><circle r="12" cx="1102" cy="272"></circle><circle r="14" cx="753" cy="57"></circle><circle r="14" cx="854" cy="120"></circle><circle r="15" cx="748" cy="274"></circle><circle r="10" cx="967" cy="258"></circle><circle r="9" cx="1030" cy="588"></circle><circle r="6" cx="714" cy="542"></circle><circle r="6" cx="440" cy="365"></circle><circle r="9" cx="923" cy="251"></circle><circle r="14" cx="1116" cy="73"></circle><circle r="12" cx="615" cy="328"></circle><circle r="11" cx="157" cy="82"></circle><circle r="15" cx="78" cy="324"></circle><circle r="4" cx="260" cy="179"></circle><circle r="13" cx="1062" cy="124"></circle><circle r="13" cx="54" cy="424"></circle><circle r="2" cx="459" cy="253"></circle><circle r="13" cx="885" cy="586"></circle><circle r="4" cx="1125" cy="443"></circle><circle r="3" cx="647" cy="303"></circle><circle r="10" cx="1069" cy="350"></circle><circle r="6" cx="983" cy="571"></circle><circle r="13" cx="695" cy="388"></circle><circle r="12" cx="600" cy="407"></circle><circle r="5" cx="1350" cy="202"></circle><circle r="5" cx="233" cy="34"></circle><circle r="13" cx="28" cy="445"></circle><circle r="6" cx="788" cy="159"></circle><circle r="14" cx="399" cy="7"></circle><circle r="15" cx="358" cy="518"></circle><circle r="9" cx="795" cy="361"></circle><circle r="5" cx="1332" cy="256"></circle><circle r="10" cx="230" cy="383"></circle><circle r="7" cx="111" cy="220"></circle><circle r="5" cx="153" cy="434"></circle><circle r="2" cx="489" cy="509"></circle><circle r="11" cx="3" cy="22"></circle><circle r="12" cx="427" cy="472"></circle><circle r="5" cx="1381" cy="149"></circle><circle r="6" cx="575" cy="320"></circle><circle r="3" cx="349" cy="8"></circle><circle r="2" cx="270" cy="349"></circle><circle r="8" cx="137" cy="512"></circle><circle r="5" cx="1240" cy="453"></circle><circle r="14" cx="789" cy="46"></circle><circle r="5" cx="619" cy="541"></circle><circle r="15" cx="1245" cy="244"></circle><circle r="1" cx="818" cy="597"></circle><circle r="4" cx="54" cy="49"></circle><circle r="7" cx="773" cy="207"></circle><circle r="9" cx="709" cy="128"></circle><circle r="1" cx="1024" cy="16"></circle><circle r="2" cx="1251" cy="524"></circle><circle r="1" cx="33" cy="89"></circle><circle r="4" cx="1077" cy="477"></circle><circle r="9" cx="336" cy="278"></circle><circle r="15" cx="746" cy="364"></circle><circle r="9" cx="1006" cy="51"></circle><circle r="3" cx="1224" cy="591"></circle><circle r="8" cx="273" cy="513"></circle><circle r="4" cx="593" cy="150"></circle><circle r="10" cx="1399" cy="307"></circle><circle r="14" cx="423" cy="206"></circle><circle r="13" cx="943" cy="422"></circle><circle r="3" cx="199" cy="317"></circle><circle r="9" cx="400" cy="163"></circle><circle r="10" cx="200" cy="517"></circle><circle r="4" cx="60" cy="158"></circle><circle r="7" cx="615" cy="96"></circle><circle r="15" cx="441" cy="508"></circle><circle r="11" cx="1017" cy="557"></circle><circle r="8" cx="844" cy="7"></circle><circle r="8" cx="654" cy="106"></circle><circle r="2" cx="668" cy="200"></circle><circle r="2" cx="1081" cy="597"></circle><circle r="13" cx="846" cy="452"></circle><circle r="10" cx="640" cy="433"></circle><circle r="13" cx="361" cy="556"></circle><circle r="3" cx="960" cy="525"></circle><circle r="6" cx="1174" cy="358"></circle><circle r="5" cx="1211" cy="546"></circle><circle r="2" cx="492" cy="336"></circle><circle r="8" cx="656" cy="519"></circle><circle r="6" cx="1019" cy="138"></circle><circle r="9" cx="742" cy="404"></circle><circle r="15" cx="1348" cy="380"></circle><circle r="2" cx="1164" cy="249"></circle><circle r="2" cx="219" cy="131"></circle><circle r="11" cx="1156" cy="49"></circle><circle r="5" cx="810" cy="123"></circle><circle r="11" cx="940" cy="291"></circle><circle r="15" cx="542" cy="211"></circle><circle r="7" cx="1079" cy="43"></circle><circle r="4" cx="1102" cy="231"></circle><circle r="9" cx="1004" cy="354"></circle><circle r="8" cx="862" cy="240"></circle><circle r="5" cx="1084" cy="184"></circle><circle r="14" cx="400" cy="530"></circle><circle r="8" cx="1217" cy="47"></circle><circle r="9" cx="5" cy="181"></circle><circle r="8" cx="876" cy="433"></circle><circle r="14" cx="156" cy="6"></circle><circle r="10" cx="734" cy="330"></circle><circle r="3" cx="1131" cy="582"></circle><circle r="2" cx="169" cy="594"></circle><circle r="6" cx="41" cy="327"></circle><circle r="2" cx="392" cy="593"></circle><circle r="12" cx="606" cy="238"></circle><circle r="8" cx="165" cy="245"></circle><circle r="11" cx="1243" cy="381"></circle><circle r="4" cx="532" cy="492"></circle><circle r="10" cx="820" cy="247"></circle><circle r="12" cx="1324" cy="114"></circle><circle r="10" cx="372" cy="91"></circle><circle r="9" cx="1042" cy="371"></circle><circle r="14" cx="1208" cy="83"></circle><circle r="6" cx="1232" cy="167"></circle><circle r="12" cx="1387" cy="492"></circle><circle r="2" cx="270" cy="556"></circle><circle r="13" cx="690" cy="445"></circle><circle r="2" cx="518" cy="18"></circle><circle r="3" cx="347" cy="340"></circle><circle r="12" cx="475" cy="553"></circle><circle r="13" cx="1265" cy="138"></circle><circle r="8" cx="586" cy="8"></circle><circle r="15" cx="169" cy="120"></circle><circle r="5" cx="792" cy="539"></circle><circle r="9" cx="107" cy="423"></circle><circle r="14" cx="1374" cy="420"></circle><circle r="3" cx="338" cy="144"></circle><circle r="7" cx="693" cy="595"></circle><circle r="5" cx="133" cy="255"></circle><circle r="13" cx="118" cy="177"></circle><circle r="2" cx="930" cy="546"></circle><circle r="8" cx="873" cy="308"></circle><circle r="4" cx="1137" cy="498"></circle><circle r="13" cx="431" cy="88"></circle><circle r="15" cx="71" cy="285"></circle><circle r="7" cx="1321" cy="308"></circle><circle r="11" cx="1053" cy="241"></circle><circle r="2" cx="570" cy="271"></circle><circle r="12" cx="1213" cy="117"></circle><circle r="4" cx="247" cy="238"></circle><circle r="9" cx="119" cy="347"></circle><circle r="5" cx="534" cy="546"></circle><circle r="10" cx="33" cy="485"></circle><circle r="5" cx="831" cy="345"></circle><circle r="8" cx="1279" cy="241"></circle><circle r="14" cx="1288" cy="280"></circle><circle r="4" cx="321" cy="571"></circle><circle r="3" cx="973" cy="60"></circle><circle r="12" cx="526" cy="80"></circle><circle r="11" cx="1158" cy="447"></circle><circle r="4" cx="305" cy="22"></circle><circle r="7" cx="1248" cy="319"></circle><circle r="14" cx="686" cy="299"></circle><circle r="12" cx="1270" cy="408"></circle><circle r="9" cx="470" cy="464"></circle><circle r="13" cx="962" cy="158"></circle><circle r="13" cx="311" cy="170"></circle><circle r="11" cx="820" cy="181"></circle><circle r="13" cx="326" cy="490"></circle><circle r="2" cx="467" cy="298"></circle><circle r="7" cx="459" cy="183"></circle><circle r="1" cx="124" cy="51"></circle><circle r="15" cx="7" cy="529"></circle><circle r="11" cx="632" cy="599"></circle><circle r="15" cx="244" cy="467"></circle><circle r="3" cx="1197" cy="237"></circle><circle r="10" cx="1036" cy="65"></circle><circle r="15" cx="742" cy="596"></circle><circle r="4" cx="92" cy="150"></circle><circle r="1" cx="972" cy="396"></circle><circle r="5" cx="1138" cy="312"></circle><circle r="14" cx="77" cy="480"></circle><circle r="8" cx="9" cy="339"></circle><circle r="5" cx="1279" cy="355"></circle><circle r="6" cx="1338" cy="519"></circle><circle r="15" cx="476" cy="599"></circle><circle r="10" cx="1310" cy="442"></circle><circle r="7" cx="52" cy="123"></circle><circle r="11" cx="963" cy="491"></circle><circle r="4" cx="521" cy="392"></circle><circle r="7" cx="196" cy="461"></circle><circle r="9" cx="612" cy="459"></circle><circle r="10" cx="500" cy="139"></circle><circle r="3" cx="794" cy="575"></circle><circle r="1" cx="1062" cy="438"></circle><circle r="2" cx="975" cy="324"></circle><circle r="5" cx="880" cy="389"></circle><circle r="13" cx="498" cy="200"></circle><circle r="4" cx="1389" cy="364"></circle><circle r="7" cx="1005" cy="444"></circle><circle r="9" cx="1135" cy="544"></circle><circle r="12" cx="939" cy="17"></circle><circle r="10" cx="136" cy="295"></circle><circle r="10" cx="1168" cy="119"></circle><circle r="4" cx="1159" cy="216"></circle><circle r="7" cx="1276" cy="460"></circle><circle r="12" cx="640" cy="146"></circle><circle r="12" cx="574" cy="375"></circle><circle r="3" cx="827" cy="94"></circle><circle r="5" cx="1371" cy="327"></circle><circle r="13" cx="484" cy="86"></circle><circle r="3" cx="264" cy="71"></circle><circle r="5" cx="381" cy="412"></circle><circle r="9" cx="763" cy="104"></circle><circle r="6" cx="1283" cy="585"></circle><circle r="14" cx="409" cy="49"></circle><circle r="9" cx="1256" cy="97"></circle><circle r="1" cx="427" cy="332"></circle><circle r="3" cx="1057" cy="205"></circle><circle r="8" cx="114" cy="108"></circle><circle r="9" cx="600" cy="295"></circle><circle r="5" cx="423" cy="575"></circle><circle r="15" cx="805" cy="399"></circle><circle r="8" cx="1355" cy="549"></circle><circle r="3" cx="476" cy="40"></circle><circle r="4" cx="665" cy="480"></circle><circle r="9" cx="734" cy="463"></circle><circle r="7" cx="102" cy="275"></circle><circle r="10" cx="1002" cy="253"></circle><circle r="3" cx="983" cy="292"></circle></g></svg>