<svg id="visual" viewBox="0 0 1400 600" width="1400" height="600" xmlns="http://www.w3.org/2000/svg" xmlns:xlink="http://www.w3.org/1999/xlink" version="1.1"><rect x="0" y="0" width="1400" height="600" fill="#f6f6f6"></rect><g fill="#a6a4ff"><circle r="17" cx="1167" cy="269"></circle><circle r="2" cx="26" cy="328"></circle><circle r="10" cx="108" cy="597"></circle><circle r="6" cx="1214" cy="25"></circle><circle r="8" cx="1363" cy="156"></circle><circle r="15" cx="325" cy="133"></circle><circle r="2" cx="1190" cy="182"></circle><circle r="9" cx="266" cy="189"></circle><circle r="4" cx="341" cy="303"></circle><circle r="14" cx="418" cy="421"></circle><circle r="11" cx="781" cy="344"></circle><circle r="8" cx="1076" cy="118"></circle><circle r="15" cx="924" cy="188"></circle><circle r="4" cx="592" cy="240"></circle><circle r="14" cx="911" cy="95"></circle><circle r="9" cx="698" cy="564"></circle><circle r="13" cx="1279" cy="175"></circle><circle r="5" cx="408" cy="235"></circle><circle r="5" cx="242" cy="232"></circle><circle r="6" cx="46" cy="525"></circle><circle r="14" cx="1312" cy="593"></circle><circle r="7" cx="1368" cy="349"></circle><circle r="14" cx="566" cy="520"></circle><circle r="1" cx="456" cy="582"></circle><circle r="2" cx="997" cy="251"></circle><circle r="9" cx="1303" cy="235"></circle><circle r="5" cx="415" cy="17"></circle><circle r="11" cx="932" cy="532"></circle><circle r="10" cx="1210" cy="417"></circle><circle r="1" cx="139" cy="445"></circle><circle r="6" cx="560" cy="192"></circle><circle r="9" cx="1215" cy="498"></circle><circle r="10" cx="56" cy="151"></circle><circle r="4" cx="344" cy="364"></circle><circle r="13" cx="1344" cy="537"></circle><circle r="4" cx="137" cy="116"></circle><circle r="12" cx="356" cy="200"></circle><circle r="11" cx="941" cy="6"></circle><circle r="9" cx="144" cy="177"></circle><circle r="6" cx="1013" cy="329"></circle><circle r="8" cx="1300" cy="434"></circle><circle r="2" cx="91" cy="480"></circle><circle r="12" cx="743" cy="351"></circle><circle r="7" cx="700" cy="205"></circle><circle r="9" cx="1316" cy="383"></circle><circle r="15" cx="811" cy="379"></circle><circle r="1" cx="568" cy="80"></circle><circle r="14" cx="470" cy="105"></circle><circle r="6" cx="1231" cy="168"></circle><circle r="9" cx="348" cy="535"></circle><circle r="1" cx="1383" cy="252"></circle><circle r="3" cx="1131" cy="564"></circle><circle r="8" cx="809" cy="169"></circle><circle r="9" cx="1266" cy="295"></circle><circle r="15" cx="1095" cy="270"></circle><circle r="4" cx="561" cy="273"></circle><circle r="2" cx="1356" cy="444"></circle><circle r="10" cx="706" cy="294"></circle><circle r="5" cx="36" cy="236"></circle><circle r="13" cx="755" cy="83"></circle><circle r="9" cx="593" cy="130"></circle><circle r="11" cx="235" cy="422"></circle><circle r="13" cx="1026" cy="481"></circle><circle r="11" cx="12" cy="535"></circle><circle r="6" cx="1094" cy="590"></circle><circle r="12" cx="889" cy="437"></circle><circle r="6" cx="186" cy="428"></circle><circle r="15" cx="491" cy="240"></circle><circle r="12" cx="673" cy="64"></circle><circle r="2" cx="323" cy="214"></circle><circle r="3" cx="1259" cy="426"></circle><circle r="8" cx="1347" cy="232"></circle><circle r="5" cx="845" cy="505"></circle><circle r="2" cx="318" cy="327"></circle><circle r="10" cx="424" cy="459"></circle><circle r="11" cx="565" cy="27"></circle><circle r="13" cx="1373" cy="86"></circle><circle r="5" cx="1048" cy="582"></circle><circle r="1" cx="441" cy="158"></circle><circle r="1" cx="519" cy="411"></circle><circle r="1" cx="723" cy="143"></circle><circle r="1" cx="805" cy="223"></circle><circle r="3" cx="337" cy="14"></circle><circle r="11" cx="1372" cy="512"></circle><circle r="14" cx="1236" cy="84"></circle><circle r="15" cx="287" cy="23"></circle><circle r="15" cx="256" cy="562"></circle><circle r="11" cx="112" cy="354"></circle><circle r="13" cx="664" cy="169"></circle><circle r="8" cx="957" cy="49"></circle><circle r="10" cx="622" cy="459"></circle><circle r="7" cx="716" cy="419"></circle><circle r="3" cx="1168" cy="538"></circle><circle r="13" cx="1224" cy="452"></circle><circle r="2" cx="1310" cy="202"></circle><circle r="8" cx="26" cy="458"></circle><circle r="8" cx="1268" cy="15"></circle><circle r="2" cx="445" cy="223"></circle><circle r="10" cx="648" cy="595"></circle><circle r="3" cx="1295" cy="89"></circle><circle r="8" cx="497" cy="38"></circle><circle r="9" cx="580" cy="474"></circle><circle r="5" cx="1214" cy="128"></circle><circle r="2" cx="502" cy="168"></circle><circle r="9" cx="1243" cy="557"></circle><circle r="11" cx="487" cy="387"></circle><circle r="8" cx="1397" cy="186"></circle><circle r="12" cx="1036" cy="134"></circle><circle r="5" cx="910" cy="272"></circle><circle r="2" cx="223" cy="187"></circle><circle r="3" cx="1196" cy="331"></circle><circle r="6" cx="223" cy="67"></circle><circle r="13" cx="104" cy="307"></circle><circle r="8" cx="1235" cy="304"></circle><circle r="15" cx="385" cy="428"></circle><circle r="8" cx="1180" cy="399"></circle><circle r="10" cx="522" cy="298"></circle><circle r="15" cx="181" cy="322"></circle><circle r="10" cx="99" cy="146"></circle><circle r="4" cx="940" cy="470"></circle><circle r="13" cx="680" cy="258"></circle><circle r="15" cx="834" cy="545"></circle><circle r="1" cx="1100" cy="538"></circle><circle r="12" cx="488" cy="493"></circle></g></svg>