<svg version="1.1" viewBox="0 0 800 800" opacity="1">
  <defs>
    <linearGradient gradientTransform="rotate(270)" x1="50%" y1="0%" x2="50%" y2="100%" id="sssquiggly-grad">
      <stop stop-color="hsl(185, 53%, 55%)" stop-opacity="1" offset="0%"></stop>
      <stop stop-color="hsl(0, 73%, 55%)" stop-opacity="1" offset="100%"></stop>
    </linearGradient>
  </defs>
  <g stroke-width="2" stroke="hsla(0, 0%, 90%, 1.00)" fill="none" stroke-linecap="round" transform="matrix(1,0,0,1,-5,133.23898792266846)">
    <path d="M10,10C49.583333333333336,9.583333333333334,118.75,9.666666666666666,200,8C281.25,6.333333333333334,316.66666666666663,1.375,400,2C483.33333333333337,2.625,516.6666666666666,9.333333333333334,600,11C683.3333333333334,12.666666666666666,758.3333333333334,10.208333333333334,800,10"></path>
    <path d="M10,10C49.583333333333336,9.583333333333334,118.75,9.666666666666666,200,8C281.25,6.333333333333334,316.66666666666663,1.375,400,2C483.33333333333337,2.625,516.6666666666666,9.333333333333334,600,11C683.3333333333334,12.666666666666666,758.3333333333334,10.208333333333334,800,10" transform="matrix(1,0,0,1,0,520)"></path>
    <path d="M10,10C49.583333333333336,9.583333333333334,118.75,9.666666666666666,200,8C281.25,6.333333333333334,316.66666666666663,1.375,400,2C483.33333333333337,2.625,516.6666666666666,9.333333333333334,600,11C683.3333333333334,12.666666666666666,758.3333333333334,10.208333333333334,800,10" transform="matrix(1,0,0,1,0,510)"></path>
    <!-- Add more path elements here -->
  </g>
</svg>
