<svg xmlns="http://www.w3.org/2000/svg" version="1.1" xmlns:xlink="http://www.w3.org/1999/xlink" xmlns:svgjs="http://svgjs.dev/svgjs" viewBox="0 0 2400 800" opacity="0.1"><defs><linearGradient x1="50%" y1="0%" x2="50%" y2="100%" id="sssurf-grad"><stop stop-color="hsl(208, 77%, 50%)" stop-opacity="1" offset="0%"></stop><stop stop-color="hsl(208, 74%, 93%)" stop-opacity="1" offset="100%"></stop></linearGradient></defs><g fill="hsl(0, 0, 0)" transform="matrix(1,0,0,1,0,12.8665771484375)"><path d="M 0 312.90211864077986 Q 180 600.2455785509028 240 304.26684110834606 Q 420 528.0771771198529 480 311.96511676561585 Q 660 568.2206575824382 720 318.3770265540932 Q 900 451.34060727294934 960 305.5049349209896 Q 1140 561.1915153283365 1200 314.789451798443 Q 1380 557.6960187831304 1440 330.53253185746723 Q 1620 587.3568788363642 1680 319.60343309227255 Q 1860 552.4926747213285 1920 315.57443150620645 Q 2100 571.5325389160464 2160 339.879851247617 Q 2340 647.3744680785937 2400 334.83656314154507 L 2400 800 L 0 800 L 0 338.6132512034992 Z" transform="matrix(1,0,0,1,0,35)" opacity="NaN"></path></g></svg>