<svg xmlns="http://www.w3.org/2000/svg" xmlns:xlink="http://www.w3.org/1999/xlink" width="1200" height="1200" viewBox="0 0 1200 1200"><rect width="100%" height="100%" fill="#ffffff"></rect><g transform="translate(600 600) scale(0.69 0.69) rotate(0) translate(-600 -600)" style="fill:#06b30d"><svg fill="#06b30d" xmlns="http://www.w3.org/2000/svg" xmlns:xlink="http://www.w3.org/1999/xlink" version="1.1" x="0px" y="0px" viewBox="0 0 64 64" enable-background="new 0 0 64 64" xml:space="preserve"><g display="none"><rect x="-706.495" y="-10.779" display="inline" fill="#06b30d" width="787" height="375.042"></rect></g><g display="none"><polygon display="inline" fill="#06b30d" points="21.625,9.991 36.928,25 0,25 0,39 36.928,39 21.625,54.009 31.373,64 64,32    31.373,0  "></polygon></g><g><g><path d="M25.586,35.688l5.997,6.137l16.841-16.488L31.583,8.849l-5.997,6.136l6.183,6.054H15.795v8.595h15.974L25.586,35.688z     M17.795,27.634V23.04h18.876l-8.259-8.085l3.202-3.276l13.95,13.659l-13.95,13.658l-3.202-3.275l8.259-8.085H17.795z"></path><path d="M4.872,46.217h24.087v7.326H16.924v6h30.069v-6H34.959v-7.326h24.169c2.687,0,4.872-2.186,4.872-4.872V9.329    c0-2.687-2.186-4.872-4.872-4.872H4.872C2.186,4.457,0,6.642,0,9.329v32.016C0,44.031,2.186,46.217,4.872,46.217z M44.993,55.543    v2H18.924v-2h12.035v-9.326h2v9.326H44.993z M2,9.329c0-1.583,1.288-2.872,2.872-2.872h54.256C60.712,6.457,62,7.745,62,9.329    v32.016c0,1.584-1.288,2.872-2.872,2.872H4.872C3.288,44.217,2,42.929,2,41.345V9.329z"></path></g></g><g display="none"><g display="inline"><path d="M4.872,46.217h24.087v7.326H16.924v6h30.069v-6H34.959v-7.326h24.169c2.687,0,4.872-2.186,4.872-4.872V9.329    c0-2.687-2.186-4.872-4.872-4.872H4.872C2.186,4.457,0,6.642,0,9.329v32.016C0,44.031,2.186,46.217,4.872,46.217z M44.993,55.543    v2H18.924v-2h12.035v-9.326h2v9.326H44.993z M16.795,22.039H34.22l-7.221-7.07l4.6-4.706l15.396,15.073L31.599,40.41l-4.6-4.706    l7.221-7.07H16.795V22.039z"></path></g></g><g display="none"><g display="inline"><path fill="#06b30d" d="M32,0C14.327,0,0,14.327,0,32c0,17.673,14.327,32,32,32s32-14.327,32-32C64,14.327,49.673,0,32,0z"></path></g><g display="inline"><polyline fill="#06b30d" points="29.958,45.483 29.958,54.543 17.924,54.543 17.924,58.543 45.993,58.543 45.993,54.543     33.958,54.543 33.958,45.483   "></polyline><polygon points="46.993,59.543 16.924,59.543 16.924,53.543 28.959,53.543 28.959,45.482 30.959,45.482 30.959,55.543     18.924,55.543 18.924,57.543 44.993,57.543 44.993,55.543 32.959,55.543 32.959,45.482 34.959,45.482 34.959,53.543     46.993,53.543   "></polygon></g><g display="inline"><path fill="#06b30d" d="M59.128,45.217H4.872C2.742,45.217,1,43.475,1,41.345V9.329c0-2.13,1.742-3.872,3.872-3.872h54.256    c2.13,0,3.872,1.742,3.872,3.872v32.016C63,43.475,61.258,45.217,59.128,45.217z"></path><path d="M59.128,46.217H4.872C2.186,46.217,0,44.031,0,41.345V9.329c0-2.687,2.186-4.872,4.872-4.872h54.256    C61.814,4.457,64,6.642,64,9.329v32.016C64,44.031,61.814,46.217,59.128,46.217z M4.872,6.457C3.288,6.457,2,7.745,2,9.329v32.016    c0,1.584,1.288,2.872,2.872,2.872h54.256c1.584,0,2.872-1.288,2.872-2.872V9.329c0-1.583-1.288-2.872-2.872-2.872H4.872z"></path></g><g display="inline"><polygon fill="#06b30d" points="26.999,14.97 34.22,22.04 16.795,22.04 16.795,28.634 34.22,28.634 26.999,35.704 31.599,40.41     46.994,25.337 31.599,10.264   "></polygon><path d="M31.583,41.825l-5.997-6.137l6.183-6.054H15.795V21.04h15.974l-6.183-6.054l5.997-6.136l16.841,16.488L31.583,41.825z     M28.412,35.72l3.202,3.275l13.95-13.658l-13.95-13.659l-3.202,3.276l8.259,8.085H17.795v4.595h18.876L28.412,35.72z"></path></g></g></svg></g></svg>